<svg width="47" height="47" viewBox="0 0 47 47" fill="none" xmlns="http://www.w3.org/2000/svg">
<circle cx="23.5" cy="23.5" r="21.5" stroke="#161616" style="stroke:#161616;stroke:color(display-p3 0.0863 0.0863 0.0863);stroke-opacity:1;" stroke-width="4"/>
<path d="M10.9668 14.0999C15.0134 14.0999 15.0134 17.3782 19.0612 17.3782C23.1091 17.3782 23.1078 14.0999 27.1557 14.0999C31.2035 14.0999 31.2023 17.3782 35.2501 17.3782M10.9668 21.86C15.0134 21.86 15.0134 25.1383 19.0612 25.1383C23.1091 25.1383 23.1078 21.86 27.1557 21.86C31.2035 21.86 31.2023 25.1383 35.2501 25.1383M10.9668 29.6215C15.0134 29.6215 15.0134 32.8999 19.0612 32.8999C23.1091 32.8999 23.1078 29.6215 27.1557 29.6215C31.2035 29.6215 31.2023 32.8999 35.2501 32.8999" stroke="#161616" style="stroke:#161616;stroke:color(display-p3 0.0863 0.0863 0.0863);stroke-opacity:1;" stroke-width="4" stroke-linecap="round" stroke-linejoin="round"/>
</svg>
